<svg width="24" height="24" viewBox="0 0 24 24" fill="none" xmlns="http://www.w3.org/2000/svg">
<path fill-rule="evenodd" clip-rule="evenodd" d="M11.1202 22C16.1571 22 20.2405 17.8957 20.2405 12.8328C20.2405 7.76995 16.1571 3.66565 11.1202 3.66565C6.08326 3.66565 2 7.76995 2 12.8328C2 17.8957 6.08326 22 11.1202 22ZM11.1204 18.4226C14.1917 18.4226 16.6815 15.9201 16.6815 12.8329C16.6815 9.74578 14.1917 7.24321 11.1204 7.24321C8.04909 7.24321 5.5593 9.74578 5.5593 12.8329C5.5593 15.9201 8.04909 18.4226 11.1204 18.4226Z" fill="black"/>
<path fill-rule="evenodd" clip-rule="evenodd" d="M19.5068 9.22417C18.9226 9.82264 18.396 10.4777 17.939 11.1784L17.87 11.2843C17.5981 11.7011 16.9868 11.6909 16.7289 11.2651C15.8009 9.73278 14.5301 8.43922 13.0176 7.48714L12.7714 7.33214C12.399 7.09767 12.4173 6.5464 12.8045 6.33746C13.6643 5.87357 14.4453 5.28482 15.1243 4.59412C17.0814 5.55686 18.645 7.20347 19.5068 9.22417Z" fill="white"/>
<path fill-rule="evenodd" clip-rule="evenodd" d="M17.8372 2.2767C17.586 1.89165 17.0179 1.91233 16.7952 2.31462L16.7056 2.47621C16.2744 3.25495 15.7417 3.96668 15.1247 4.59424C15.1245 4.59417 15.1248 4.59431 15.1247 4.59424C14.4457 5.28494 13.6643 5.87348 12.8045 6.33738C12.4173 6.54631 12.399 7.09759 12.7714 7.33206L13.0176 7.48699C14.5301 8.43914 15.8009 9.73269 16.7289 11.265C16.8604 11.4821 17.0839 11.5913 17.3074 11.5907C17.5222 11.5904 17.7373 11.4887 17.8706 11.2842L17.9397 11.1783C18.9048 9.69856 20.1801 8.42267 21.6524 7.45259C22.112 7.14972 22.1196 6.46745 21.66 6.16458L21.6046 6.12804C20.1523 5.17111 18.9116 3.92398 17.9595 2.46427L17.8372 2.2767ZM17.3074 11.5907C17.5222 11.5904 17.7373 11.4887 17.8706 11.2842L17.939 11.1783C18.396 10.4776 18.9226 9.82256 19.5068 9.22409C18.645 7.20352 17.0817 5.55701 15.1247 4.59424C14.4457 5.28494 13.6643 5.87348 12.8045 6.33738C12.4174 6.54631 12.3996 7.09759 12.772 7.33206L13.0176 7.48699C14.5301 8.43914 15.8009 9.73269 16.7289 11.265C16.8604 11.4821 17.0839 11.5913 17.3074 11.5907Z" fill="black"/>
</svg>
