<svg width="24" height="24" viewBox="0 0 24 24" fill="none" xmlns="http://www.w3.org/2000/svg">
<mask id="mask0_3533_5299" style="mask-type:alpha" maskUnits="userSpaceOnUse" x="0" y="0" width="24" height="24">
<rect width="24" height="24" fill="white"/>
</mask>
<g mask="url(#mask0_3533_5299)">
<path d="M8.71094 12.01C8.71094 10.044 10.3047 8.45024 12.2707 8.45024C13.6797 8.45024 14.8975 9.26882 15.4745 10.4563C15.778 10.2473 16.146 10.1248 16.5425 10.1248C16.7688 10.1248 16.9858 10.1647 17.1868 10.2378C16.461 8.22478 14.5339 6.78567 12.2707 6.78567C9.38539 6.78567 7.04637 9.12469 7.04637 12.01C7.04637 14.8954 9.38539 17.2344 12.2707 17.2344C14.5339 17.2344 16.461 15.7953 17.1868 13.7822C16.9858 13.8553 16.7688 13.8952 16.5425 13.8952C16.146 13.8952 15.778 13.7728 15.4745 13.5637C14.8975 14.7512 13.6797 15.5698 12.2707 15.5698C10.3047 15.5698 8.71094 13.976 8.71094 12.01Z" fill="black"/>
<path d="M17.5653 12.01C17.5653 12.5749 17.1074 13.0328 16.5425 13.0328C15.9776 13.0328 15.5197 12.5749 15.5197 12.01C15.5197 11.4451 15.9776 10.9872 16.5425 10.9872C17.1074 10.9872 17.5653 11.4451 17.5653 12.01Z" fill="black"/>
<path fill-rule="evenodd" clip-rule="evenodd" d="M22 12C22 17.5228 17.5228 22 12 22C6.47715 22 2 17.5228 2 12C2 6.47715 6.47715 2 12 2C17.5228 2 22 6.47715 22 12ZM20.4708 12.2067C20.4725 12.138 20.4733 12.0691 20.4733 12C20.4733 11.9308 20.4725 11.8617 20.4708 11.7928C20.3918 8.45382 18.407 5.59811 15.5869 4.32115C14.4977 3.81146 13.2821 3.52672 12 3.52672C7.32036 3.52672 3.52674 7.32034 3.52674 12C3.52674 16.6797 7.32036 20.4733 12 20.4733C16.6106 20.4733 20.3611 16.7909 20.4708 12.2067Z" fill="black"/>
</g>
</svg>
