<svg width="24" height="24" viewBox="0 0 24 24" fill="none" xmlns="http://www.w3.org/2000/svg">
<path d="M16.5613 15.4033L21.0232 12.8273C21.2592 12.6909 21.406 12.4369 21.406 12.1641V7.01127C21.406 6.73888 21.2592 6.48448 21.0232 6.34807L16.5613 3.77207C16.3253 3.63567 16.0317 3.63607 15.7957 3.77207L11.3336 6.34807C11.0977 6.48448 10.9509 6.73848 10.9509 7.01127V16.2189L7.82205 18.0248L4.69326 16.2189V12.6057L7.82205 10.7997L9.88605 11.9909V9.56727L8.20486 8.59688C8.08886 8.53007 7.95645 8.49488 7.82205 8.49488C7.68765 8.49488 7.55526 8.53007 7.43926 8.59688L2.97686 11.1733C2.74086 11.3097 2.59406 11.5637 2.59406 11.8365V16.9889C2.59406 17.2613 2.74086 17.5157 2.97686 17.6521L7.43886 20.2284C7.67486 20.3645 7.96805 20.3645 8.20445 20.2284L12.6664 17.6525C12.9025 17.5161 13.0492 17.2616 13.0492 16.9893V7.78167L13.1057 7.74927L16.1781 5.97567L19.3068 7.78207V11.3948L16.1781 13.2013L14.1172 12.0116V14.4353L15.7953 15.4045C16.0313 15.5405 16.3249 15.5405 16.5609 15.4045L16.5613 15.4033Z" fill="black"/>
</svg>
