<svg width="24" height="24" viewBox="0 0 24 24" fill="none" xmlns="http://www.w3.org/2000/svg">
<path d="M11.2982 2.07189C11.005 2.1259 10.6505 2.23519 10.2487 2.38056C9.84127 2.528 9.6275 2.62973 9.27643 2.85127C8.93819 3.10639 8.74398 3.25254 8.44303 3.54578C7.5093 4.47179 7 5.69103 7 6.99516C7 7.68194 7.03858 7.89801 7.26237 8.60023C7.53245 9.43364 7.88742 9.91979 9.47707 11.5712C11.0821 13.2534 13.1502 15.4604 13.5592 15.9388C13.8679 16.2938 13.9605 16.5407 13.9605 17.0192C13.9605 17.976 13.0268 18.74 12.039 18.5934C11.5992 18.5239 11.3677 18.4082 11.0513 18.0764C10.7426 17.76 10.5651 17.3433 10.5651 16.9497C10.5651 16.6102 10.6407 16.4391 10.8043 16.1626C10.8299 16.1195 10.8456 16.0961 10.8738 16.0546C11.0058 15.8601 11.0513 15.7922 11.2673 15.5993L11.6686 15.2443L11.3677 14.9125C8.83658 12.0882 8.73626 11.9956 8.72083 12.6747C8.71311 13.0296 8.55106 13.3614 8.14207 13.8476C6.87653 15.3446 6.66818 17.459 7.60962 19.2725C8.02632 20.0827 8.9369 20.9624 9.79345 21.3868C11.2905 22.1199 12.8184 22.1971 14.2769 21.6106C14.7206 21.4344 14.9647 21.3068 15.3881 21.0319C17.2015 19.7895 17.9655 17.4976 17.271 15.3987C17.0009 14.5884 16.5533 14.0019 14.763 12.1113C10.8352 7.95974 10.758 7.86714 10.6423 7.56619C10.5034 7.19579 10.5497 6.58617 10.7426 6.24663C10.951 5.87623 11.5297 5.46725 11.9541 5.39779C12.9342 5.23574 13.9605 6.07687 13.9605 7.04146C13.9605 7.38099 13.9133 7.57098 13.7213 7.82856C13.6957 7.8629 13.679 7.88034 13.6518 7.91344C13.4998 8.09865 13.4743 8.17581 13.2583 8.38416L12.857 8.76228L13.0885 9.00922C13.212 9.14812 13.8679 9.84262 14.547 10.5603L15.7739 11.8567L15.8356 11.4091C15.936 10.6683 15.9514 10.6374 16.3372 10.1899C17.0395 9.36419 17.4253 8.3996 17.487 7.32697C17.6259 4.91936 15.99 2.75867 13.5592 2.16449C12.8416 1.987 11.9387 1.94842 11.2982 2.07189Z" fill="black"/>
</svg>
