<svg width="24" height="24" viewBox="0 0 24 24" fill="none" xmlns="http://www.w3.org/2000/svg">
<path d="M17.48 1.84802C15.984 2.33602 13.856 2.81602 11.92 3.11202C9.448 3.48002 8.28 3.55202 4.824 3.56002H1.52V6.68002V9.80002L2.28 10.56C2.696 10.976 3.04 11.344 3.04 11.368C3.04 11.4 2.552 11.72 1.96 12.088L0.888001 12.76L0.880001 15.36V17.96L3.16 20.24L5.44 22.52H8.904C12.424 22.52 13.184 22.48 15.68 22.152C17.872 21.872 20.68 21.24 22.4 20.656L23.08 20.424L23.104 17.272L23.12 14.128L22.32 13.32L21.52 12.52L22.16 11.88L22.8 11.24V8.69602V6.14402L20.584 3.87202C19.368 2.62402 18.336 1.60002 18.288 1.60802C18.24 1.61602 17.88 1.72002 17.48 1.84802ZM21.04 9.63202V10.856L20.344 11.544C18.824 13.008 16.16 15.296 13.92 17.04L12.76 17.944L13.52 17.888C15.528 17.744 18.496 17.24 20.448 16.72C20.936 16.584 21.36 16.48 21.392 16.48C21.416 16.48 21.432 17.096 21.424 17.856L21.4 19.232L20.76 19.416C19.08 19.888 16.464 20.368 14.32 20.6C12.816 20.76 9.72 20.872 8.224 20.816L7.04 20.776V19.552V18.328L8.744 17.184C11.312 15.448 15.352 12.448 15.256 12.352C15.232 12.328 14.632 12.368 13.912 12.44C13.192 12.512 11.496 12.592 10.144 12.616L7.68 12.664V11.248V9.84002H9.592C13.296 9.84002 16.76 9.44802 19.736 8.68802C20.296 8.54402 20.824 8.41602 20.904 8.41602C21.024 8.40002 21.04 8.50402 21.04 9.63202Z" fill="black"/>
</svg>
